<?xml version="1.0" standalone="no"?>
<!DOCTYPE svg PUBLIC "-//W3C//DTD SVG 20010904//EN"
 "http://www.w3.org/TR/2001/REC-SVG-20010904/DTD/svg10.dtd">
<svg version="1.0" xmlns="http://www.w3.org/2000/svg"
 width="847.000000pt" height="847.000000pt" viewBox="0 0 847.000000 847.000000"
 preserveAspectRatio="xMidYMid meet">
<metadata>
Created by potrace 1.14, written by Peter Selinger 2001-2017
</metadata>
<g transform="translate(0.000000,847.000000) scale(0.100000,-0.100000)"
fill="#000000" stroke="none">
<path d="M680 8226 c-133 -37 -268 -144 -323 -256 -61 -122 -57 163 -57 -3740
0 -3065 2 -3583 15 -3629 48 -184 202 -332 383 -370 38 -8 1029 -11 3545 -11
3809 0 3533 -4 3656 57 101 50 219 188 246 288 4 17 11 37 14 45 3 8 7 1630 8
3605 2 3923 7 3632 -54 3755 -35 71 -142 177 -214 213 -122 61 156 57 -3669
56 -2773 -1 -3514 -3 -3550 -13z"/>
</g>
</svg>
